<svg width="99" height="93" viewBox="0 0 99 93" fill="none" xmlns="http://www.w3.org/2000/svg">
<path d="M91.9286 43.1925V64.4068H7.07143V7.83534H49.5V0.763916H7.07143C5.19597 0.763916 3.39732 1.50894 2.07117 2.83509C0.745023 4.16124 0 5.95989 0 7.83534V64.4068C0 66.2822 0.745023 68.0809 2.07117 69.407C3.39732 70.7332 5.19597 71.4782 7.07143 71.4782H35.3571V85.6211H21.2143V92.6925H77.7857V85.6211H63.6429V71.4782H91.9286C93.804 71.4782 95.6027 70.7332 96.9288 69.407C98.255 68.0809 99 66.2822 99 64.4068V43.1925H91.9286ZM56.5714 85.6211H42.4286V71.4782H56.5714V85.6211Z" fill="white"/>
</svg>
